<svg width="100" height="100" viewBox="0 0 100 100" fill="none" xmlns="http://www.w3.org/2000/svg">
    <path d="M50 10C70.4646 10 87 26.5354 87 47C87 67.4646 70.4646 84 50 84C29.5354 84 13 67.4646 13 47C13 26.5354 29.5354 10 50 10Z" fill="#E74D89"/>
    <path d="M49.5 89C27.6281 89 10 71.3719 10 49.5C10 27.6281 27.7913 10 49.5 10C71.2087 10 89 27.6281 89 49.5C89 71.3719 71.3719 89 49.5 89ZM82.7975 54.8864C81.655 54.5599 72.3512 51.7851 61.7417 53.4174C66.1488 65.4959 67.9442 75.4525 68.2707 77.4112C75.9422 72.3512 81.3285 64.3533 82.7975 54.8864V54.8864ZM62.7211 80.6756C62.2314 77.7376 60.2727 67.4546 55.5393 55.0496H55.376C36.2789 61.7417 29.4236 74.9628 28.9339 76.1054C34.6467 80.5124 41.8285 83.2872 49.6632 83.2872C54.2335 83.2872 58.6405 82.3079 62.7211 80.6756V80.6756ZM24.3636 72.0248C25.1798 70.719 34.4835 55.376 51.7851 49.8265C52.2748 49.6632 52.6012 49.5 53.0909 49.5C52.2748 47.5413 51.2955 45.7459 50.3161 43.7872C33.5041 48.8471 17.0186 48.6839 15.5496 48.5207V49.5C15.7128 58.1508 18.9773 66.1488 24.3636 72.0248ZM16.3657 42.6446C17.8347 42.6446 31.7087 42.8079 47.5413 38.5641C41.9917 28.6074 35.9525 20.2831 34.9731 19.1405C25.6694 23.5475 18.6508 32.1983 16.3657 42.6446ZM41.6653 16.6921C42.6446 17.9979 48.6839 26.3223 54.2335 36.4422C66.312 31.8719 71.3719 25.1798 71.8616 24.2004C65.8223 18.9773 57.9876 15.7128 49.5 15.7128C46.7252 15.876 44.1136 16.2025 41.6653 16.6921V16.6921ZM75.6157 28.1178C74.9628 29.0971 69.25 36.2789 56.845 41.5021C57.6612 43.1343 58.3141 44.7665 59.1302 46.3988C59.4566 47.0517 59.6198 47.5413 59.9463 48.1942C71.2087 46.7252 82.3079 49.0103 83.4504 49.3368C83.2872 41.3388 80.3492 33.9938 75.6157 28.1178Z" fill="#B2215A"/>
</svg>
