<svg xmlns="http://www.w3.org/2000/svg" width="32" height="32" fill="none" viewBox="0 0 32 32">
  <path fill="#FC6D26" d="M0 16c0 8.837 7.163 16 16 16s16-7.163 16-16S24.837 0 16 0 0 7.163 0 16z"/>
  <path fill="#fff" fill-rule="evenodd" d="M23.953 16.863l-.84-2.579a.37.37 0 00-.02-.069l-1.684-5.183a.67.67 0 00-.639-.456.658.658 0 00-.631.46l-1.605 4.939h-5.065l-1.607-4.939a.658.658 0 00-.63-.46h-.003a.671.671 0 00-.637.46l-1.685 5.19-.003.007-.002.006-.855 2.625a.957.957 0 00.348 1.072l7.381 5.363a.377.377 0 00.446-.002l7.383-5.361a.956.956 0 00.348-1.073zm-11.279-2.888l-1.448-4.453-1.444 4.453h2.892zm9.549 0l-1.446-4.453-1.448 4.453h2.894zm-9.304.758l2.058 6.332-4.94-6.332h2.882zm4.107 6.334l1.973-6.071.085-.263h2.884l-4.469 5.724-.473.61zm-3.311-6.337h4.574L16 21.77l-2.285-7.039zm-4.876 2.595a.203.203 0 01-.073-.228l.634-1.95 4.653 5.965-5.214-3.787zm9.109 3.786l5.213-3.786a.205.205 0 00.074-.23l-.635-1.948-4.635 5.941-.017.023z" clip-rule="evenodd"/>
</svg>
