<svg xmlns="http://www.w3.org/2000/svg" width="32" height="32" fill="none" viewBox="0 0 32 32">
  <path fill="#3A76F0" d="M0 16c0 8.837 7.163 16 16 16s16-7.163 16-16S24.837 0 16 0 0 7.163 0 16z"/>
  <path fill="#fff" d="M14.08 8.234l.179.727a7.264 7.264 0 00-2.01.832l-.383-.643a7.9 7.9 0 012.213-.916zm3.84 0l-.179.727a7.266 7.266 0 012.01.832l.388-.643a7.957 7.957 0 00-2.218-.916zm-8.77 3.63a7.944 7.944 0 00-.916 2.215l.727.18a7.264 7.264 0 01.832-2.01l-.643-.386zM8.75 16c0-.364.027-.727.081-1.086l-.74-.114a8 8 0 000 2.398l.74-.112A7.26 7.26 0 018.75 16zm11.384 6.848l-.384-.64c-.623.376-1.3.657-2.007.831l.18.727a7.965 7.965 0 002.211-.918zM23.25 16c0 .364-.027.727-.081 1.086l.74.112c.121-.795.121-1.603 0-2.398l-.74.114c.054.36.082.722.081 1.086zm.516 1.918l-.727-.18a7.25 7.25 0 01-.832 2.012l.643.387a7.93 7.93 0 00.916-2.219zm-6.68 5.25c-.72.11-1.452.11-2.172 0l-.112.742c.794.12 1.602.12 2.396 0l-.112-.741zm4.75-2.868a7.229 7.229 0 01-1.536 1.534l.446.605a8.07 8.07 0 001.695-1.689l-.604-.45zM20.3 10.163c.587.432 1.105.95 1.537 1.537l.604-.45a8.056 8.056 0 00-1.69-1.691l-.45.604zM10.163 11.7a7.244 7.244 0 011.537-1.537l-.45-.604a8.058 8.058 0 00-1.691 1.69l.604.45zm12.688.163l-.644.387c.377.623.658 1.3.832 2.007l.727-.18a7.932 7.932 0 00-.915-2.214zm-7.937-3.032c.72-.109 1.452-.109 2.172 0l.112-.74a7.984 7.984 0 00-2.396 0l.112.74zM10.547 22.64L9 23l.362-1.549-.73-.17-.361 1.548a.75.75 0 00.9.902l1.548-.357-.17-.734zm-1.761-2.027l.732.168.25-1.073a7.187 7.187 0 01-.807-1.968l-.727.18c.163.662.41 1.302.736 1.902l-.184.79zm3.5 1.623l-1.073.25.17.731.79-.184c.6.327 1.239.574 1.902.737l.18-.728a7.202 7.202 0 01-1.962-.811l-.007.005zM16 9.5a6.502 6.502 0 00-6.498 6.502 6.517 6.517 0 00.998 3.455l-.625 2.668 2.666-.625a6.502 6.502 0 006.93-11A6.517 6.517 0 0016 9.5z"/>
</svg>
