<svg xmlns="http://www.w3.org/2000/svg" width="32" height="32" fill="none" viewBox="0 0 32 32">
  <path fill="#4A154B" d="M32 16c0-8.837-7.163-16-16-16S0 7.163 0 16s7.163 16 16 16 16-7.163 16-16z"/>
  <path fill="#E01E5A" d="M11.376 18.115a1.68 1.68 0 01-1.682 1.681 1.68 1.68 0 01-1.681-1.681c0-.93.751-1.682 1.681-1.682h1.682v1.682zM12.217 18.115c0-.93.751-1.682 1.681-1.682s1.682.752 1.682 1.682v4.204A1.68 1.68 0 0113.898 24a1.68 1.68 0 01-1.681-1.681v-4.204z"/>
  <path fill="#36C5F0" d="M13.898 11.363a1.68 1.68 0 01-1.681-1.681c0-.93.751-1.682 1.681-1.682s1.682.752 1.682 1.682v1.681h-1.682zM13.898 12.217c.93 0 1.682.751 1.682 1.681a1.68 1.68 0 01-1.682 1.682H9.682A1.68 1.68 0 018 13.898c0-.93.752-1.681 1.682-1.681h4.216z"/>
  <path fill="#2EB67D" d="M20.637 13.898c0-.93.752-1.681 1.682-1.681.93 0 1.681.751 1.681 1.681a1.68 1.68 0 01-1.681 1.682h-1.682v-1.682zM19.796 13.898a1.68 1.68 0 01-1.681 1.682 1.68 1.68 0 01-1.682-1.682V9.682c0-.93.752-1.682 1.682-1.682.93 0 1.681.752 1.681 1.682v4.216z"/>
  <path fill="#ECB22E" d="M18.115 20.637c.93 0 1.681.752 1.681 1.681A1.68 1.68 0 0118.115 24a1.68 1.68 0 01-1.682-1.681v-1.682h1.682zM18.115 19.796a1.68 1.68 0 01-1.682-1.681c0-.93.752-1.682 1.682-1.682h4.216c.93 0 1.682.752 1.682 1.682a1.68 1.68 0 01-1.682 1.681h-4.216z"/>
</svg>
