<svg width="100" height="100" viewBox="0 0 100 100" fill="none" xmlns="http://www.w3.org/2000/svg">
    <path d="M50 85C69.33 85 85 69.33 85 50C85 30.67 69.33 15 50 15C30.67 15 15 30.67 15 50C15 69.33 30.67 85 50 85Z" fill="url(#paint0_linear_1172_557)"/>
    <path d="M38.6918 52.5585L42.8442 64.0519C42.8442 64.0519 43.3634 65.1273 43.9193 65.1273C44.4752 65.1273 52.7437 56.5255 52.7437 56.5255L61.9385 38.7659L38.84 49.5917L38.6918 52.5585Z" fill="#C8DAEA"/>
    <path d="M44.1976 55.5061L43.4005 63.9778C43.4005 63.9778 43.0668 66.5737 45.662 63.9778C48.2573 61.382 50.7414 59.3803 50.7414 59.3803" fill="#A9C6D8"/>
    <path d="M38.7667 52.9686L30.225 50.1855C30.225 50.1855 29.2042 49.7713 29.5329 48.8322C29.6005 48.6385 29.737 48.4737 30.1454 48.1905C32.038 46.8713 65.1763 34.9605 65.1763 34.9605C65.1763 34.9605 66.1119 34.6452 66.6638 34.8549C66.8003 34.8972 66.9231 34.9749 67.0197 35.0803C67.1163 35.1856 67.1832 35.3146 67.2136 35.4543C67.2732 35.7009 67.2981 35.9547 67.2877 36.2083C67.285 36.4276 67.2585 36.6309 67.2384 36.9497C67.0365 40.2061 60.9967 64.5101 60.9967 64.5101C60.9967 64.5101 60.6353 65.9323 59.3406 65.981C59.0224 65.9913 58.7055 65.9374 58.4086 65.8225C58.1117 65.7077 57.8409 65.5342 57.6125 65.3125C55.0718 63.127 46.2903 57.2255 44.3498 55.9275C44.3061 55.8977 44.2692 55.8589 44.2417 55.8136C44.2142 55.7683 44.1968 55.7176 44.1906 55.665C44.1634 55.5283 44.3122 55.3588 44.3122 55.3588C44.3122 55.3588 59.6031 41.7671 60.01 40.3403C60.0415 40.2298 59.9225 40.1752 59.7627 40.2236C58.7471 40.5973 41.1415 51.7153 39.1984 52.9423C39.0585 52.9847 38.9107 52.9936 38.7667 52.9686V52.9686Z" fill="white"/>
    <defs>
        <linearGradient id="paint0_linear_1172_557" x1="50" y1="85" x2="50" y2="15" gradientUnits="userSpaceOnUse">
            <stop stop-color="#1D93D2"/>
            <stop offset="1" stop-color="#38B0E3"/>
        </linearGradient>
    </defs>
</svg>
