<svg xmlns="http://www.w3.org/2000/svg" width="32" height="32" fill="none" viewBox="0 0 32 32">
  <path fill="#fff" d="M32 16c0-8.837-7.163-16-16-16S0 7.163 0 16s7.163 16 16 16 16-7.163 16-16z"/>
  <path fill="#07F" d="M8 15.68c0-3.621 0-5.43 1.12-6.56C10.256 8 12.064 8 15.68 8h.64c3.621 0 5.43 0 6.56 1.12C24 10.256 24 12.064 24 15.68v.64c0 3.621 0 5.43-1.12 6.56C21.744 24 19.936 24 16.32 24h-.64c-3.621 0-5.43 0-6.56-1.12C8 21.744 8 19.936 8 16.32v-.64z"/>
  <path fill="#fff" d="M16.512 19.525c-3.648 0-5.728-2.496-5.813-6.656h1.834c.059 3.051 1.403 4.342 2.47 4.608V12.87h1.722v2.63c1.051-.112 2.16-1.312 2.534-2.635h1.717a5.081 5.081 0 01-2.336 3.323 5.265 5.265 0 012.736 3.338h-1.893c-.406-1.264-1.419-2.245-2.758-2.378v2.378h-.213z"/>
</svg>
