<svg xmlns="http://www.w3.org/2000/svg" width="32" height="32" fill="none" viewBox="0 0 32 32">
  <path fill="#222" d="M0 16c0 8.837 7.163 16 16 16s16-7.163 16-16S24.837 0 16 0 0 7.163 0 16z"/>
  <path fill="#fff" d="M23.238 15.072l.724-.724c.026-.026.087-.088-.037-.216-.054-.055-.102-.083-.145-.083a.113.113 0 00-.081.039l-.725.725-.724-.728c-.059-.059-.127-.045-.215.043-.09.09-.105.16-.047.218l.724.728-.709.71-.005.004c-.017.017-.043.042-.044.083 0 .043.029.093.085.149.047.047.092.071.133.071.046 0 .076-.03.093-.046l.712-.712.727.728c.01.01.035.03.076.03h.002c.046 0 .094-.027.144-.079.082-.086.095-.157.04-.212l-.728-.728zm-2.613-1.04c-.536.041-.956.513-.956 1.074v1.774c0 .103.078.124.196.124.117 0 .195-.021.195-.124v-1.778c0-.35.255-.65.58-.684a.655.655 0 01.72.651.737.737 0 01-.146.388.664.664 0 01-.562.266h-.006c-.077 0-.143.003-.156.187-.008.124-.008.179.099.194.19.026.384-.011.577-.111.328-.17.548-.495.574-.845a1.04 1.04 0 00-1.115-1.115zM9.528 15.209a1.399 1.399 0 00-1.064.282v-1.056h1.79c.063 0 .108-.012.108-.195 0-.18-.073-.187-.12-.187H8.259c-.115 0-.176.093-.176.197v1.734c0 .09.058.122.165.143.094.018.148.008.19-.038l.004-.007c.189-.272.6-.536.99-.488.467.057.842.43.893.885a1.008 1.008 0 01-1 1.123c-.423 0-.793-.273-.947-.668-.023-.058-.062-.101-.229-.04-.153.055-.162.12-.14.178.2.552.73.924 1.316.924a1.402 1.402 0 001.39-1.56 1.395 1.395 0 00-1.187-1.227zm7.741 2.367a1.57 1.57 0 01-1.568-1.569 1.57 1.57 0 011.568-1.568 1.57 1.57 0 011.569 1.568 1.57 1.57 0 01-1.569 1.569zm0-3.562c-1.1 0-1.994.894-1.994 1.993 0 1.1.895 1.994 1.994 1.994 1.1 0 1.994-.894 1.994-1.994 0-1.099-.895-1.993-1.994-1.993zm-4.314 3.562a1.57 1.57 0 01-1.569-1.569 1.57 1.57 0 011.569-1.568 1.57 1.57 0 011.568 1.568 1.57 1.57 0 01-1.568 1.569zm0-3.562c-1.1 0-1.994.894-1.994 1.993 0 1.1.894 1.994 1.994 1.994 1.099 0 1.993-.894 1.993-1.994 0-1.099-.894-1.993-1.993-1.993z"/>
</svg>
