<svg xmlns="http://www.w3.org/2000/svg" width="32" height="32" fill="none" viewBox="0 0 32 32">
  <path fill="#000B1D" d="M0 16C0 7.163 7.163 0 16 0s16 7.163 16 16-7.163 16-16 16S0 24.837 0 16z"/>
  <path fill="#fff" d="M18.216 15.244l1.308.039.015 6.896c0 .11.05.167.149.167h2.114c.075 0 .121-.019.14-.056a.248.248 0 00.027-.111l-.014-6.896h1.815c.111 0 .167-.044.167-.13v-1.636a.185.185 0 00-.028-.11c-.018-.026-.065-.038-.139-.038h-1.815v-.743c-.01-.28.03-.56.12-.826a.796.796 0 01.372-.437c.235-.09.485-.134.737-.13h.279c.099 0 .301.006.388.018.1.025.149-.006.149-.092v-1.84a.191.191 0 00-.13-.185 2.685 2.685 0 00-.537-.102 4.75 4.75 0 00-.54-.028 3.105 3.105 0 00-1.82.483 3.223 3.223 0 00-1.058 1.244 3.68 3.68 0 00-.298.938 13.773 13.773 0 00-.093 1.664v.036l-1.308-.014a.114.114 0 00-.126.077.116.116 0 00-.005.053v1.629c0 .074.044.118.13.13z"/>
  <path fill="#fff" fill-rule="evenodd" d="M8 10.258v11.87c0 .099.043.149.13.149h2.174a.148.148 0 00.167-.168v-3.66a10 10 0 01.502.01c.111.006.303.01.576.01a7.394 7.394 0 002.6-.437 3.882 3.882 0 001.858-1.403 4.127 4.127 0 00.687-2.452 4.35 4.35 0 00-.26-1.495 3.633 3.633 0 00-.845-1.31c-.44-.427-.97-.75-1.551-.947a6.98 6.98 0 00-2.378-.353c-.347 0-.696.003-1.05.01a683.33 683.33 0 00-1.885.036c-.273.007-.416.01-.613.01-.075 0-.112.043-.112.13zm2.471 5.944v-3.845c.087-.012.245-.022.474-.028.23-.006.492-.01.79-.01.463-.014.924.065 1.356.233.33.131.612.362.808.66.185.307.279.662.269 1.02.026.428-.103.85-.362 1.19-.25.29-.58.504-.948.613-.43.13-.878.192-1.328.186h-.613c-.136 0-.285-.006-.446-.019z" clip-rule="evenodd"/>
</svg>
