<svg width="100" height="100" viewBox="0 0 100 100" fill="none" xmlns="http://www.w3.org/2000/svg">
    <path d="M84.5948 65.9305C84.2826 64.9979 83.8142 64.0654 83.5019 63.1329C82.8774 61.7342 82.2529 60.4908 81.7845 59.2474C76.4761 47.9018 70.8554 36.2454 64.9225 24.8998L64.7664 24.4335C64.1418 23.3456 63.5173 22.1022 62.8928 20.8589C62.1122 19.4601 61.3315 18.0613 60.0825 16.6626C57.5844 13.5542 54.1495 12 50.4024 12C46.6553 12 43.2205 13.7096 40.5662 16.5072C39.4733 17.9059 38.5366 19.3047 37.7559 20.7035C37.1314 21.9468 36.5069 23.1902 35.8824 24.2781L35.7262 24.7444C29.7933 36.09 24.1726 47.7464 18.8642 59.092V59.2474C18.3958 60.4908 17.7713 61.7342 17.1468 63.1329C16.8345 63.91 16.3661 64.8425 16.0539 65.9305C15.1171 68.728 14.8048 71.3701 15.1171 74.1677C15.8977 79.9182 19.801 84.5808 25.1094 86.7566C27.1391 87.5337 29.1688 88 31.3546 88C31.9791 88 32.7598 88 33.3843 87.8446C35.8824 87.5337 38.5366 86.7566 41.0346 85.2024C44.1572 83.4928 47.1237 81.0061 50.5585 77.2761C53.9934 80.8507 56.9599 83.4928 60.0825 85.2024C62.5805 86.6012 65.2347 87.5337 67.7328 87.8446C68.3573 87.8446 69.138 88 69.7625 88C71.9483 88 73.978 87.6892 76.0077 86.7566C81.3161 84.5808 85.0632 79.7628 86 74.1677C85.8439 71.3701 85.5316 68.728 84.5948 65.9305ZM50.0902 69.8159C46.0308 64.6871 43.2204 59.7137 42.4398 55.6728C42.1275 53.9632 41.9714 52.409 42.2837 51.0102C42.4398 49.7669 42.9082 48.6789 43.5327 47.7464C44.9379 45.726 47.436 44.3272 50.2463 44.3272C53.0566 44.3272 55.5547 45.5705 56.9599 47.7464C57.5844 48.6789 58.0528 49.7669 58.2089 51.0102C58.365 52.409 58.365 53.9632 58.0528 55.6728C56.9599 59.7137 54.1495 64.6871 50.0902 69.8159V69.8159ZM80.5355 73.3906C80.0671 77.2761 77.2567 80.6953 73.6657 82.2495C71.7922 83.0266 69.9186 83.182 67.8889 83.0266C66.0154 82.8712 64.1418 82.2495 62.1122 81.0061C59.3018 79.4519 56.6476 77.1207 53.3689 73.7014C58.365 67.4847 61.4876 61.8896 62.5805 56.9162C63.0489 54.5849 63.2051 52.409 62.8928 50.3885C62.5805 48.5235 61.956 46.8139 60.8631 45.2597C58.5212 41.8405 54.4618 39.82 50.0902 39.82C45.7185 39.82 41.6592 41.8405 39.3172 45.2597C38.2243 46.8139 37.5998 48.5235 37.2875 50.3885C36.9753 52.409 37.1314 54.5849 37.5998 56.9162C38.6927 61.8896 41.8153 67.6401 46.8114 73.8569C43.6888 77.2761 40.8785 79.7628 38.0682 81.1616C36.0385 82.2495 34.1649 82.8712 32.2914 83.182C30.2617 83.3374 28.232 83.182 26.5146 82.4049C22.7675 80.8507 20.1132 77.4315 19.6449 73.546C19.4887 71.681 19.6449 69.816 20.2694 67.6401C20.4255 66.863 20.8939 66.0859 21.2062 65.1534C21.6745 63.91 22.2991 62.6667 22.9236 61.4233V61.2679C28.232 49.9223 33.8527 38.4213 39.7856 27.0757L39.9417 26.6094C40.5662 25.5215 41.1908 24.2781 41.8153 23.1902C42.4398 21.9468 43.0643 20.8589 44.0011 19.771C45.5624 17.9059 47.7482 16.9734 50.0902 16.9734C52.4321 16.9734 54.6179 17.9059 56.1792 19.771C56.9599 20.7035 57.7405 21.9468 58.365 23.1902C58.9896 24.2781 59.6141 25.5215 60.2386 26.6094L60.3947 27.0757C66.1715 38.4213 71.7922 49.9223 77.1006 61.2679C77.7251 62.5112 78.1935 63.91 78.818 64.998C79.1303 65.9305 79.5987 66.7076 79.7548 67.4847C80.6916 69.5051 80.8477 71.5256 80.5355 73.3906V73.3906Z" fill="#FF5A5F"/>
</svg>
