<svg xmlns="http://www.w3.org/2000/svg" width="32" height="32" fill="none" viewBox="0 0 32 32">
  <path fill="#000" d="M32 16c0-8.837-7.163-16-16-16S0 7.163 0 16s7.163 16 16 16 16-7.163 16-16z"/>
  <path fill="#1ABCFE" d="M15.983 16a2.667 2.667 0 115.334 0 2.667 2.667 0 01-5.334 0z"/>
  <path fill="#0ACF83" d="M10.65 21.333a2.667 2.667 0 012.667-2.666h2.666v2.666a2.667 2.667 0 11-5.333 0z"/>
  <path fill="#FF7262" d="M15.983 8v5.333h2.667a2.667 2.667 0 100-5.333h-2.667z"/>
  <path fill="#F24E1E" d="M10.65 10.667a2.667 2.667 0 002.667 2.666h2.666V8h-2.666a2.667 2.667 0 00-2.667 2.667z"/>
  <path fill="#A259FF" d="M10.65 16a2.667 2.667 0 002.667 2.667h2.666v-5.334h-2.666A2.667 2.667 0 0010.65 16z"/>
</svg>
