<svg xmlns="http://www.w3.org/2000/svg" width="32" height="32" fill="none" viewBox="0 0 32 32">
  <path fill="#231E1B" d="M0 16c0 8.837 7.163 16 16 16s16-7.163 16-16S24.837 0 16 0 0 7.163 0 16z"/>
  <path fill="#fff" fill-rule="evenodd" d="M15.976 8.192A7.977 7.977 0 008 16.168c0 3.523 2.3 6.507 5.431 7.584.392.049.538-.196.538-.392v-1.37c-2.201.49-2.69-1.076-2.69-1.076-.343-.93-.881-1.175-.881-1.175-.734-.489.049-.489.049-.489.782.049 1.223.832 1.223.832.734 1.223 1.86.88 2.3.685.048-.538.293-.88.489-1.076-1.762-.196-3.621-.881-3.621-3.964 0-.88.294-1.566.832-2.153-.05-.146-.343-.978.098-2.055 0 0 .685-.196 2.201.832.636-.196 1.322-.245 2.007-.245s1.37.098 2.006.245c1.517-1.028 2.201-.832 2.201-.832.44 1.077.147 1.909.098 2.104.49.538.832 1.272.832 2.153 0 3.083-1.86 3.719-3.62 3.915.293.244.538.733.538 1.467v2.202c0 .196.146.44.538.392A7.984 7.984 0 0024 16.168c-.049-4.404-3.62-7.976-8.024-7.976z" clip-rule="evenodd"/>
</svg>
