<svg xmlns="http://www.w3.org/2000/svg" width="32" height="32" fill="none" viewBox="0 0 32 32">
  <path fill="#fff" d="M32 16c0-8.837-7.163-16-16-16S0 7.163 0 16s7.163 16 16 16 16-7.163 16-16z"/>
  <path fill="#4989F5" d="M23.125 12.007H8.356a.635.635 0 00-.635.635v10.723c0 .35.284.635.635.635h14.77c.35 0 .634-.284.634-.635V12.642a.635.635 0 00-.635-.635z"/>
  <path fill="url(#paint0_linear_115_44)" d="M22.94 11.916H8.524c-.447 0-.795 3.456-.795 3.903L15.624 24h7.316a.814.814 0 00.811-.812v-10.46a.814.814 0 00-.811-.812z"/>
  <path fill="#3C4BA6" d="M11.383 14.015h4.583V8h-3.897l-.686 6.015z"/>
  <path fill="#7BABF7" d="M20.549 14.015h-4.583V8h3.896l.687 6.015zM23.76 9.14l.006.02-.006-.02z"/>
  <path fill="#3F51B5" d="M23.766 9.16l-.005-.02A1.45 1.45 0 0022.346 8h-2.483l.686 6.015h4.582l-1.365-4.854z"/>
  <path fill="#7BABF7" d="M8.172 9.14l-.006.02.006-.02zM8.166 9.16l.005-.02A1.45 1.45 0 019.586 8h2.483l-.686 6.015H6.8l1.366-4.854z"/>
  <path fill="#709BE0" fill-rule="evenodd" d="M11.383 14.013A2.29 2.29 0 019.09 16.3 2.29 2.29 0 016.8 14.013h4.583z" clip-rule="evenodd"/>
  <path fill="#3C4BA6" fill-rule="evenodd" d="M15.966 14.013a2.29 2.29 0 01-2.292 2.287 2.29 2.29 0 01-2.291-2.287h4.583z" clip-rule="evenodd"/>
  <path fill="#709BE0" fill-rule="evenodd" d="M20.548 14.013a2.29 2.29 0 01-2.291 2.287 2.29 2.29 0 01-2.292-2.287h4.583z" clip-rule="evenodd"/>
  <path fill="#3C4BA6" fill-rule="evenodd" d="M25.131 14.013A2.29 2.29 0 0122.84 16.3a2.29 2.29 0 01-2.292-2.287h4.583z" clip-rule="evenodd"/>
  <path fill="#fff" d="M22.84 20.218a4.362 4.362 0 00-.04-.336h-2.498l-.001 1.08h1.447a1.259 1.259 0 01-.53.808v-.006a1.515 1.515 0 01-.587.229 1.584 1.584 0 01-1.225-.259 1.65 1.65 0 01-.606-.813v-.003l.002-.002a1.603 1.603 0 01-.001-1.03 1.66 1.66 0 01.384-.626 1.562 1.562 0 011.574-.41c.214.066.41.182.572.337l.488-.488c.087-.087.176-.171.259-.261a2.58 2.58 0 00-.855-.53 2.688 2.688 0 00-1.85.006 2.673 2.673 0 00-1.675 1.963 2.658 2.658 0 001.916 3.09c.443.119.913.116 1.36.015a2.41 2.41 0 001.087-.566c.321-.295.551-.689.672-1.107.1-.354.137-.724.108-1.091z"/>
  <defs>
    <linearGradient id="paint0_linear_115_44" x1="7.729" x2="23.751" y1="17.958" y2="17.958" gradientUnits="userSpaceOnUse">
      <stop offset=".03" stop-color="#4079D8"/>
      <stop offset="1" stop-color="#4989F5"/>
    </linearGradient>
  </defs>
</svg>
