<svg xmlns="http://www.w3.org/2000/svg" width="32" height="32" fill="none" viewBox="0 0 32 32">
  <path fill="#fff" d="M32 16c0-8.837-7.163-16-16-16S0 7.163 0 16s7.163 16 16 16 16-7.163 16-16z"/>
  <path fill="#4285F4" fill-rule="evenodd" d="M23.83 16.182c0-.567-.051-1.113-.145-1.636H16.15v3.094h4.305a3.68 3.68 0 01-1.596 2.415v2.007h2.585c1.513-1.393 2.386-3.444 2.386-5.88z" clip-rule="evenodd"/>
  <path fill="#34A853" fill-rule="evenodd" d="M16.15 24c2.16 0 3.97-.716 5.294-1.938l-2.585-2.008c-.717.48-1.633.764-2.71.764-2.083 0-3.847-1.407-4.476-3.298H9v2.073A7.997 7.997 0 0016.15 24z" clip-rule="evenodd"/>
  <path fill="#FBBC05" fill-rule="evenodd" d="M11.674 17.52a4.81 4.81 0 01-.251-1.52c0-.527.09-1.04.25-1.52v-2.073H9.002A7.997 7.997 0 008.15 16c0 1.29.309 2.513.85 3.593l2.674-2.073z" clip-rule="evenodd"/>
  <path fill="#EA4335" fill-rule="evenodd" d="M16.15 11.182c1.174 0 2.229.403 3.058 1.196l2.294-2.294C20.117 8.793 18.306 8 16.15 8A7.997 7.997 0 009 12.407l2.673 2.073c.63-1.89 2.393-3.298 4.477-3.298z" clip-rule="evenodd"/>
</svg>
