<svg width="100" height="100" viewBox="0 0 100 100" fill="none" xmlns="http://www.w3.org/2000/svg">
    <path d="M57.6641 17.6414L50.481 24.8251L51.9561 26.3003C52.153 26.5 52.3877 26.6587 52.6464 26.7669C52.9051 26.8752 53.1828 26.9309 53.4633 26.9309C53.7438 26.9309 54.0214 26.8752 54.2802 26.7669C54.5389 26.6587 54.7736 26.5 54.9705 26.3003L62.1536 19.1166L60.6785 17.6414C60.4816 17.4417 60.2469 17.283 59.9882 17.1748C59.7295 17.0665 59.4518 17.0108 59.1713 17.0108C58.8908 17.0108 58.6132 17.0665 58.3544 17.1748C58.0957 17.283 57.861 17.4417 57.6641 17.6414V17.6414ZM39.3857 17.6414L37.654 19.1166L45.1578 26.3003C45.3492 26.4981 45.5784 26.6555 45.8318 26.7629C46.0852 26.8704 46.3577 26.9258 46.6329 26.9258C46.9082 26.9258 47.1806 26.8704 47.434 26.7629C47.6874 26.6555 47.9166 26.4981 48.108 26.3003L49.5831 24.8251L42.3359 17.6414C42.1445 17.4436 41.9153 17.2862 41.6619 17.1788C41.4084 17.0713 41.136 17.016 40.8608 17.016C40.5855 17.016 40.3131 17.0713 40.0597 17.1788C39.8062 17.2862 39.577 17.4436 39.3857 17.6414V17.6414ZM64.4624 27.07L50.8017 40.7318L53.5595 43.5539C54.3142 44.2905 55.3269 44.7028 56.3814 44.7028C57.4359 44.7028 58.4487 44.2905 59.2034 43.5539L72.8641 29.828L70.1063 27.07C69.3625 26.3375 68.3604 25.9269 67.3165 25.9269C66.2725 25.9269 65.2704 26.3375 64.5266 27.07H64.4624ZM29.8937 27.07L27.1359 29.828L40.7966 43.4898C41.1617 43.8701 41.5999 44.1726 42.0848 44.3793C42.5697 44.5859 43.0914 44.6925 43.6186 44.6925C44.1457 44.6925 44.6674 44.5859 45.1523 44.3793C45.6372 44.1726 46.0754 43.8701 46.4405 43.4898L49.1983 40.7318L35.5376 27.07C34.7828 26.3334 33.7701 25.9212 32.7156 25.9212C31.6611 25.9212 30.6484 26.3334 29.8937 27.07V27.07ZM48.4928 26.7493L47.0819 28.2245L50.0321 31.1749L52.9823 28.2245L51.5072 26.7493C51.3158 26.5514 51.0866 26.3941 50.8332 26.2866C50.5798 26.1792 50.3073 26.1238 50.0321 26.1238C49.7568 26.1238 49.4844 26.1792 49.231 26.2866C48.9775 26.3941 48.7483 26.5514 48.557 26.7493H48.4928ZM74.1468 40.4111L51.3789 63.1166L55.9325 67.7347C56.5324 68.3755 57.2575 68.8864 58.0628 69.2356C58.8681 69.5849 59.7366 69.7651 60.6143 69.7651C61.4921 69.7651 62.3606 69.5849 63.1659 69.2356C63.9712 68.8864 64.6963 68.3755 65.2962 67.7347L88 45.0292L83.4464 40.4111C82.8465 39.7703 82.1214 39.2594 81.3161 38.9102C80.5108 38.5609 79.6423 38.3807 78.7646 38.3807C77.8868 38.3807 77.0183 38.5609 76.213 38.9102C75.4077 39.2594 74.6826 39.7703 74.0827 40.4111H74.1468ZM16.4253 40.4111L12 44.965L34.7038 67.7347C35.3037 68.3755 36.0288 68.8864 36.8341 69.2356C37.6394 69.5849 38.5079 69.7651 39.3857 69.7651C40.2634 69.7651 41.1319 69.5849 41.9372 69.2356C42.7425 68.8864 43.4676 68.3755 44.0675 67.7347L48.6852 63.1166L25.9814 40.4111C25.3815 39.7703 24.6564 39.2594 23.8511 38.9102C23.0458 38.5609 22.1774 38.3807 21.2996 38.3807C20.4218 38.3807 19.5534 38.5609 18.748 38.9102C17.9427 39.2594 17.2176 39.7703 16.6177 40.4111H16.4253ZM47.0177 44.3878L44.2599 47.1458L49.8397 52.726L55.6118 47.1458L52.854 44.3878C52.4844 44.0154 52.0448 43.7199 51.5604 43.5182C51.0761 43.3166 50.5567 43.2128 50.0321 43.2128C49.5074 43.2128 48.988 43.3166 48.5037 43.5182C48.0194 43.7199 47.5797 44.0154 47.2101 44.3878H47.0177ZM45.3502 69.1458L40.7325 73.6997L50.0321 83L59.2675 73.6997L54.7139 69.1458C54.114 68.505 53.3889 67.9941 52.5836 67.6449C51.7783 67.2956 50.9098 67.1154 50.0321 67.1154C49.1543 67.1154 48.2858 67.2956 47.4805 67.6449C46.6752 67.9941 45.9501 68.505 45.3502 69.1458V69.1458Z" fill="url(#paint0_linear_1173_595)"/>
    <defs>
        <linearGradient id="paint0_linear_1173_595" x1="40.2034" y1="55.4397" x2="103.283" y2="55.4397" gradientUnits="userSpaceOnUse">
            <stop stop-color="#7CB7FF"/>
            <stop offset="1" stop-color="#BA6DF6"/>
        </linearGradient>
    </defs>
</svg>
