<svg xmlns="http://www.w3.org/2000/svg" width="32" height="32" fill="none" viewBox="0 0 32 32">
  <path fill="#F80" d="M0 16C0 7.163 7.163 0 16 0s16 7.163 16 16-7.163 16-16 16S0 24.837 0 16z"/>
  <path fill="#fff" fill-rule="evenodd" d="M20.876 11.47a4.854 4.854 0 01-4.845 4.845c-2.698 0-4.874-2.176-4.874-4.845 0-2.669 2.176-4.845 4.874-4.845a4.854 4.854 0 014.845 4.845zm-2.843 0c0-1.102-.9-2.002-2.002-2.002-1.131 0-2.031.9-2.002 2.002 0 1.103.9 2.002 2.002 2.002 1.103 0 2.002-.9 2.002-2.002z" clip-rule="evenodd"/>
  <path fill="#fff" d="M20.79 19.13a9.17 9.17 0 01-2.815 1.16l2.756 2.67c.551.55.551 1.45 0 2.002a1.418 1.418 0 01-2.002 0l-2.669-2.67-2.67 2.67c-.29.26-.638.406-1.015.406-.377 0-.725-.116-1.015-.406a1.418 1.418 0 010-2.002l2.698-2.699a9.166 9.166 0 01-2.814-1.16c-.668-.406-.87-1.277-.493-1.944a1.445 1.445 0 011.973-.435 6.16 6.16 0 006.527 0 1.413 1.413 0 011.973.435 1.414 1.414 0 01-.435 1.973z"/>
</svg>
