<svg width="100" height="100" viewBox="0 0 100 100" fill="none" xmlns="http://www.w3.org/2000/svg">
    <path d="M50 46.4151C59.5035 46.4151 67.2075 38.711 67.2075 29.2075C67.2075 19.7041 59.5035 12 50 12C40.4965 12 32.7924 19.7041 32.7924 29.2075C32.7924 38.711 40.4965 46.4151 50 46.4151Z" fill="#88BDF3"/>
    <path d="M50 88C59.5035 88 67.2075 80.2959 67.2075 70.7924C67.2075 61.289 59.5035 53.5849 50 53.5849C40.4965 53.5849 32.7924 61.289 32.7924 70.7924C32.7924 80.2959 40.4965 88 50 88Z" fill="#3075EE"/>
    <path d="M70.7924 67.2075C80.2959 67.2075 88 59.5035 88 50C88 40.4965 80.2959 32.7924 70.7924 32.7924C61.289 32.7924 53.5849 40.4965 53.5849 50C53.5849 59.5035 61.289 67.2075 70.7924 67.2075Z" fill="#5795F1"/>
    <path d="M29.2075 67.2075C38.711 67.2075 46.4151 59.5035 46.4151 50C46.4151 40.4965 38.711 32.7924 29.2075 32.7924C19.7041 32.7924 12 40.4965 12 50C12 59.5035 19.7041 67.2075 29.2075 67.2075Z" fill="#205FEC"/>
    <path d="M45.9491 45.9491C42.882 45.2033 40.0791 43.6282 37.8471 41.3963C35.6152 39.1643 34.0401 36.3614 33.2943 33.2943C36.356 34.0515 39.1528 35.6303 41.383 37.8604C43.6131 40.0906 45.1919 42.8874 45.9491 45.9491V45.9491Z" fill="#134BEF"/>
    <path d="M33.2585 66.7415C34.0043 63.6744 35.5793 60.8715 37.8113 58.6396C40.0432 56.4076 42.8461 54.8326 45.9132 54.0868C45.1561 57.1485 43.5773 59.9453 41.3471 62.1754C39.117 64.4056 36.3202 65.9844 33.2585 66.7415V66.7415Z" fill="#0932E8"/>
    <path d="M54.0509 54.0509C57.118 54.7967 59.9209 56.3718 62.1529 58.6037C64.3848 60.8357 65.9599 63.6386 66.7057 66.7057C63.644 65.9485 60.8472 64.3697 58.617 62.1396C56.3869 59.9094 54.8081 57.1126 54.0509 54.0509V54.0509Z" fill="#164BEA"/>
    <path d="M66.7415 33.2585C65.9957 36.3256 64.4207 39.1285 62.1887 41.3604C59.9568 43.5924 57.1539 45.1674 54.0868 45.9132C54.8439 42.8515 56.4227 40.0547 58.6529 37.8246C60.883 35.5944 63.6798 34.0156 66.7415 33.2585Z" fill="#3170F1"/>
</svg>