<svg xmlns="http://www.w3.org/2000/svg" width="32" height="32" fill="none" viewBox="0 0 32 32">
  <path fill="#0078D7" d="M0 16c0 8.837 7.163 16 16 16s16-7.163 16-16S24.837 0 16 0 0 7.163 0 16z"/>
  <path fill="#fff" d="M16 20.8c-2.7 0-3.9-1.4-3.9-2.4 0-.2.1-.5.3-.6.2-.2.4-.2.6-.2 1.1 0 .8 1.7 3 1.7 1.1 0 1.7-.7 1.7-1.3 0-.4-.2-.8-.9-1l-2.4-.6c-1.9-.5-2.2-1.6-2.2-2.5 0-2.1 1.9-2.8 3.7-2.8 1.6 0 3.6.9 3.6 2.1 0 .5-.4.8-1 .8-1 0-.8-1.4-2.8-1.4-1 0-1.5.5-1.5 1.1 0 .6.8.9 1.4 1l1.8.4c1.9.4 2.4 1.6 2.4 2.6 0 1.9-1.3 3.1-3.8 3.1zm7.4-3.5c.1-.4.1-.9.1-1.3 0-2.2-1-4.3-2.7-5.8-1.7-1.5-4-2-6.2-1.7-.6-.3-1.4-.5-2.2-.5-1.6 0-3.1.9-3.9 2.3-.8 1.4-.8 3.1 0 4.5-.4 2.4.3 4.9 2.1 6.7 1.7 1.7 4.2 2.5 6.6 2.1.7.4 1.4.6 2.2.6 1.6 0 3.1-.9 3.9-2.3.8-1.5.9-3.2.1-4.6z"/>
</svg>
