<svg width="100" height="100" viewBox="0 0 100 100" fill="none" xmlns="http://www.w3.org/2000/svg">
<path fill-rule="evenodd" clip-rule="evenodd" d="M39.5373 11C35.2328 11 31.7254 14.5074 31.7254 18.8119C31.7254 23.1164 35.2328 26.6238 39.5373 26.6238H47.3492V18.8119C47.3492 14.5074 43.8418 11 39.5373 11ZM39.5373 31.7254H18.8119C14.5074 31.7254 11 35.2328 11 39.5373C11 43.8418 14.5074 47.3492 18.8119 47.3492H39.5373C43.8418 47.3492 47.3492 43.8418 47.3492 39.5373C47.3492 35.2328 43.8418 31.7254 39.5373 31.7254Z" fill="#36C5F0"/>
<path fill-rule="evenodd" clip-rule="evenodd" d="M88.8 39.5373C88.8 35.2328 85.2926 31.7254 80.9881 31.7254C76.6836 31.7254 73.1762 35.2328 73.1762 39.5373V47.3492H80.9881C85.2926 47.3492 88.8 43.8418 88.8 39.5373ZM68.0746 39.5373V18.8119C68.0746 14.5074 64.5672 11 60.2627 11C55.9582 11 52.4508 14.5074 52.4508 18.8119V39.5373C52.4508 43.8418 55.9582 47.3492 60.2627 47.3492C64.5672 47.3492 68.0746 43.8418 68.0746 39.5373Z" fill="#2EB67D"/>
<path fill-rule="evenodd" clip-rule="evenodd" d="M60.2627 88.8C64.5672 88.8 68.0746 85.2927 68.0746 80.9881C68.0746 76.6836 64.5672 73.1763 60.2627 73.1763H52.4508V80.9881C52.4508 85.2927 55.9582 88.8 60.2627 88.8ZM60.2627 68.0746H80.9881C85.2926 68.0746 88.8 64.5672 88.8 60.2627C88.8 55.9582 85.2926 52.4509 80.9881 52.4509H60.2627C55.9582 52.4509 52.4508 55.9582 52.4508 60.2627C52.4508 64.5672 55.9582 68.0746 60.2627 68.0746Z" fill="#ECB22E"/>
<path fill-rule="evenodd" clip-rule="evenodd" d="M11 60.2627C11 64.5672 14.5074 68.0746 18.8119 68.0746C23.1164 68.0746 26.6238 64.5672 26.6238 60.2627V52.4509H18.8119C14.5074 52.4509 11 55.9582 11 60.2627ZM31.7254 60.2627V80.9881C31.7254 85.2927 35.2328 88.8 39.5373 88.8C43.8418 88.8 47.3492 85.2927 47.3492 80.9881V60.2627C47.3492 55.9582 43.8418 52.4509 39.5373 52.4509C35.2328 52.4509 31.7254 55.9582 31.7254 60.2627Z" fill="#E01E5A"/>
</svg>
