<svg xmlns="http://www.w3.org/2000/svg" width="32" height="32" fill="none" viewBox="0 0 32 32">
  <path fill="#25D366" d="M0 16c0 8.837 7.163 16 16 16s16-7.163 16-16S24.837 0 16 0 0 7.163 0 16z"/>
  <path fill="#fff" fill-rule="evenodd" d="M21.6 10.3C20.1 8.8 18.1 8 16 8c-4.4 0-8 3.6-8 8 0 1.4.4 2.8 1.1 4L8 24l4.2-1.1c1.2.6 2.5 1 3.8 1 4.4 0 8-3.6 8-8 0-2.1-.9-4.1-2.4-5.6zM16 22.6c-1.2 0-2.4-.3-3.4-.9l-.2-.1-2.5.7.7-2.4-.2-.3c-.7-1.1-1-2.3-1-3.5 0-3.6 3-6.6 6.6-6.6 1.8 0 3.4.7 4.7 1.9 1.3 1.3 1.9 2.9 1.9 4.7 0 3.5-2.9 6.5-6.6 6.5zm3.6-5c-.2-.1-1.2-.6-1.4-.6-.2-.1-.3-.1-.4.1-.1.2-.5.6-.6.8-.1.1-.2.1-.4.1-.2-.1-.8-.3-1.6-1-.6-.5-1-1.2-1.1-1.4-.1-.2 0-.3.1-.4l.3-.3c.1-.1.1-.2.2-.3.1-.1 0-.2 0-.3 0-.1-.4-1.1-.6-1.5-.1-.3-.3-.3-.4-.3h-.4c-.1 0-.3 0-.5.2s-.7.7-.7 1.7.7 1.9.8 2.1c.1.1 1.4 2.2 3.4 3 1.7.7 2 .5 2.4.5.4 0 1.2-.5 1.3-.9.2-.5.2-.9.1-.9-.1-.5-.3-.5-.5-.6z" clip-rule="evenodd"/>
</svg>
