<svg xmlns="http://www.w3.org/2000/svg" width="32" height="32" fill="none" viewBox="0 0 32 32">
  <path fill="#fff" d="M0 16C0 7.163 7.163 0 16 0s16 7.163 16 16-7.163 16-16 16S0 24.837 0 16z"/>
  <path fill="#2C3036" d="M17.543 17.543c-1.257 1.297-1.349 2.914-1.457 6.457 3.303 0 5.583-.011 6.76-1.154C23.989 21.669 24 19.28 24 16.086c-3.543.114-5.16.2-6.457 1.457zM8 16.086c0 3.194.011 5.583 1.154 6.76C10.331 23.989 12.611 24 15.914 24c-.114-3.543-.2-5.16-1.457-6.457-1.297-1.257-2.914-1.349-6.457-1.457zM15.914 8c-3.297 0-5.583.011-6.76 1.154C8.011 10.331 8 12.72 8 15.914c3.543-.114 5.16-.2 6.457-1.457 1.257-1.297 1.349-2.914 1.457-6.457zm1.629 6.457C16.286 13.16 16.194 11.543 16.086 8c3.303 0 5.583.011 6.76 1.154C23.989 10.331 24 12.72 24 15.914c-3.543-.114-5.16-.2-6.457-1.457z"/>
  <path fill="#fff" d="M24 16.086v-.172c-3.543-.114-5.16-.2-6.457-1.457-1.257-1.297-1.349-2.914-1.457-6.457h-.172c-.114 3.543-.2 5.16-1.457 6.457-1.297 1.257-2.914 1.349-6.457 1.457v.172c3.543.114 5.16.2 6.457 1.457 1.257 1.297 1.349 2.914 1.457 6.457h.172c.114-3.543.2-5.16 1.457-6.457 1.297-1.257 2.914-1.349 6.457-1.457z"/>
</svg>
